<svg width="155" height="40" viewBox="0 0 155 40" fill="none" xmlns="http://www.w3.org/2000/svg">
<path d="M57.522 6.0528L57.5245 3.24567L60.6187 3.24814L60.6162 6.05526L64.9078 6.0602L64.9054 8.39618L60.9426 8.39124C61.3941 10.1993 62.7363 11.8274 64.9716 13.2753C65.3618 13.5294 65.5581 13.8748 65.5581 14.3138C65.5581 14.6296 65.4427 14.9058 65.217 15.15C64.9888 15.3943 64.6894 15.5151 64.314 15.5151C64.1104 15.5151 63.9067 15.4757 63.7055 15.3967C63.0626 15.1772 62.2823 14.7184 61.3622 14.0252C60.2678 13.2087 59.5415 12.4293 59.1832 11.6892C58.9648 12.4268 58.3293 13.2778 57.2816 14.2324C56.3123 15.1278 55.4413 15.7174 54.6757 15.9986C54.5015 16.0603 54.3297 16.0923 54.1604 16.0923C53.7997 16.0923 53.5077 15.9641 53.282 15.7149C53.0562 15.4633 52.9434 15.1722 52.9434 14.8417C52.9434 14.4174 53.1225 14.0622 53.4832 13.781C55.6744 12.1185 56.9577 10.3202 57.3356 8.38631L53.3482 8.38138L53.3507 6.0454L57.522 6.0528ZM70.7796 21.4402C70.7772 22.9498 70.2594 24.156 69.2289 25.0588C68.1958 25.9617 66.8585 26.4131 65.217 26.4106C63.5583 26.4081 62.2161 25.9543 61.1855 25.049C60.1525 24.1437 59.6396 22.9375 59.6396 21.4278C59.6421 19.9207 60.1598 18.7145 61.1928 17.8116C62.2259 16.9088 63.5705 16.4574 65.2268 16.4599C66.8684 16.4623 68.2057 16.9137 69.2362 17.8215C70.2668 18.7243 70.7796 19.9305 70.7796 21.4402ZM67.7762 21.4352C67.7762 20.6508 67.5358 20.0095 67.0524 19.5137C66.569 19.0179 65.958 18.7712 65.2243 18.7687C64.4735 18.7687 63.8552 19.0154 63.3693 19.5087C62.8859 20.0045 62.6406 20.6459 62.6406 21.4278C62.6406 22.2147 62.881 22.8561 63.3644 23.3519C63.8503 23.8477 64.4661 24.0968 65.217 24.0968C65.9507 24.0968 66.5616 23.8502 67.0475 23.3568C67.5333 22.8635 67.7762 22.2246 67.7762 21.4352ZM63.7546 11.4105L63.757 9.03259L67.6045 9.03752L67.6094 4.22743L70.7747 4.22989L70.7649 14.3681C70.7649 14.8713 70.6079 15.2635 70.2938 15.5472C69.9797 15.8309 69.6141 15.9715 69.1896 15.9715C68.7528 15.9715 68.3774 15.8284 68.0658 15.5447C67.7517 15.261 67.5971 14.8688 67.5971 14.3656L67.5996 11.4154L63.7546 11.4105Z" fill="#232120"/>
<path d="M87.8106 14.908L83.6368 14.903C82.8393 14.903 82.2185 14.6761 81.7719 14.2272C81.3253 13.7782 81.1045 13.1541 81.1045 12.35L81.1119 4.56996L90.3527 4.57983L90.3453 12.3598C90.3453 13.1615 90.1195 13.7881 89.6754 14.2346C89.2313 14.6835 88.6105 14.908 87.8106 14.908ZM87.4204 7.12548L84.0195 7.12301L84.0146 11.8147C84.0146 12.1921 84.2257 12.382 84.6452 12.382L86.8045 12.3845C87.2119 12.3845 87.4155 12.197 87.4155 11.8196L87.4204 7.12548ZM99.2941 24.3012C99.2941 24.8069 99.1371 25.1991 98.823 25.4803C98.5113 25.764 98.1433 25.9046 97.7212 25.9046C97.2992 25.9046 96.9311 25.7615 96.6195 25.4778C96.3079 25.1942 96.1508 24.802 96.1533 24.2988L96.1582 20.3841C96.1582 19.9598 95.9447 19.7477 95.5251 19.7477L84.7606 19.7353L84.763 17.1897L97.5912 17.2045C98.7297 17.2069 99.3015 17.7792 99.299 18.9262L99.2941 24.3012ZM96.2784 14.5626L96.2833 10.717L94.8062 10.7145L94.8013 14.5602C94.8013 15.0634 94.6516 15.4531 94.3547 15.7269C94.0578 16.0007 93.7069 16.1389 93.2996 16.1389C92.8898 16.1389 92.5561 16.0057 92.2911 15.7368C91.977 15.4531 91.82 15.0609 91.82 14.5577L91.8298 4.25422L94.8111 4.25669L94.8062 8.19356L96.2833 8.19603L96.2883 4.25915L99.2892 4.26162L99.2794 14.5651C99.2794 15.0683 99.1321 15.458 98.8328 15.7318C98.5359 16.0057 98.185 16.1438 97.7752 16.1438C97.3704 16.1438 97.017 16.0032 96.7226 15.7294C96.4257 15.4556 96.276 15.0658 96.2784 14.5626Z" fill="#232120"/>
<path d="M120.344 12.9097C120.297 14.5278 119.443 15.3369 117.787 15.3369L112.158 15.332C110.455 15.3295 109.601 14.4736 109.604 12.7592L109.613 4.60176L112.759 4.60423L112.757 7.64815L117.213 7.65309L117.215 4.60916L120.356 4.61163L120.353 6.42713L123.521 6.4296L123.524 4.28355L126.691 4.28602L126.682 14.661C126.682 15.1642 126.525 15.554 126.213 15.8278C125.899 16.1016 125.523 16.2397 125.084 16.2397C124.665 16.2397 124.297 16.1016 123.985 15.8253C123.671 15.5515 123.516 15.1618 123.516 14.6561L123.519 12.9097H120.344ZM116.663 12.7913C117.021 12.7913 117.203 12.6087 117.203 12.2461L117.205 10.1741L112.749 10.1691L112.747 12.2412C112.747 12.6038 112.933 12.7863 113.309 12.7863L116.663 12.7913ZM126.527 21.405C126.525 22.9615 125.992 24.2047 124.93 25.1421C123.865 26.0745 122.491 26.5432 120.8 26.5407C119.095 26.5383 117.713 26.0696 116.651 25.1322C115.588 24.1949 115.058 22.9492 115.058 21.3927C115.061 19.8535 115.593 18.6152 116.658 17.6828C117.723 16.7479 119.107 16.2817 120.81 16.2841C122.5 16.2866 123.874 16.7553 124.937 17.6926C125.999 18.6275 126.529 19.8658 126.527 21.405ZM123.291 21.4026C123.291 20.6329 123.057 20.0089 122.591 19.5279C122.123 19.0493 121.526 18.8076 120.81 18.8076C120.076 18.8076 119.472 19.0468 119.004 19.5254C118.535 20.0039 118.297 20.628 118.297 21.3976C118.297 22.1697 118.53 22.7987 118.999 23.2847C119.468 23.7731 120.069 24.0173 120.805 24.0173C121.524 24.0173 122.118 23.7755 122.589 23.2871C123.055 22.8012 123.288 22.1746 123.291 21.4026ZM120.348 8.73844L120.346 10.5761L123.514 10.5786L123.516 8.74091L120.348 8.73844Z" fill="#232120"/>
<path d="M142.059 19.111L142.061 15.8352L136.481 15.8303L136.484 13.5659L146.451 13.5757C147.671 13.5782 148.711 13.4697 149.57 13.2501C149.741 13.2033 149.901 13.1786 150.041 13.1786C150.603 13.1786 150.887 13.4302 150.885 13.9334C150.885 14.3429 150.664 14.703 150.225 15.0188C149.459 15.5688 148.129 15.8426 146.235 15.8402H145.087L145.084 19.116L142.059 19.111ZM148.637 8.39317C148.635 9.74493 148.164 10.8352 147.214 11.669C146.267 12.5002 145.045 12.9147 143.543 12.9147C142.042 12.9122 140.82 12.4953 139.875 11.6616C138.93 10.8278 138.459 9.73506 138.459 8.3833C138.462 7.03154 138.935 5.94125 139.882 5.1075C140.829 4.27622 142.054 3.85935 143.553 3.86181C145.055 3.86428 146.277 4.28115 147.221 5.1149C148.169 5.94865 148.64 7.03894 148.637 8.39317ZM153.663 23.4401C154.085 23.4401 154.413 23.561 154.649 23.8052C154.882 24.0494 155 24.3454 155 24.6908C155 25.0361 154.882 25.3395 154.647 25.5985C154.411 25.8575 154.08 25.9883 153.66 25.9883L142.496 25.9759C141.544 25.9759 140.874 25.786 140.493 25.4061C140.108 25.0287 139.919 24.3528 139.919 23.3785L139.924 19.8412L142.881 19.8437L142.878 22.6015C142.878 23.1515 143.148 23.4278 143.698 23.4303L153.663 23.4401ZM145.683 8.38823C145.683 7.76169 145.472 7.25355 145.052 6.86627C144.63 6.48146 144.13 6.28659 143.551 6.28659C142.972 6.28659 142.471 6.479 142.049 6.8638C141.627 7.25108 141.413 7.75676 141.413 8.3833C141.413 9.00985 141.624 9.51552 142.047 9.89293C142.469 10.2703 142.967 10.4603 143.548 10.4627C144.125 10.4627 144.628 10.2728 145.05 9.89787C145.47 9.52046 145.681 9.01725 145.683 8.38823ZM150.384 19.1431L147.055 19.1406L147.057 16.8565L151.606 16.8614L151.619 4.31815L154.671 4.32062L154.654 19.9522C154.654 20.4554 154.499 20.8427 154.205 21.119C153.908 21.3952 153.547 21.5309 153.125 21.5284C152.72 21.5284 152.362 21.3928 152.058 21.1165C151.751 20.8402 151.599 20.4529 151.599 19.9497V19.0296C151.231 19.1061 150.824 19.1431 150.384 19.1431Z" fill="#232120"/>
<path d="M79.1411 31.4067C79.5655 31.4067 79.9729 31.4906 80.282 31.6435L80.3876 31.6953L80.628 30.8813L80.5544 30.8443C80.4317 30.7802 79.9631 30.5705 79.1165 30.568C77.2222 30.5656 75.9487 31.8507 75.9463 33.7649C75.9438 35.6396 77.1216 36.8532 78.9423 36.8532C79.6931 36.8532 80.26 36.7052 80.5372 36.5646L80.6084 36.5276L80.4023 35.7284L80.2943 35.7827C79.9974 35.9282 79.541 36.017 79.1018 36.017C77.7522 36.0145 76.945 35.166 76.9474 33.7427C76.9474 32.2775 77.7694 31.4067 79.1411 31.4067Z" fill="black"/>
<path d="M83.7587 32.2362C83.4741 32.2362 83.187 32.3151 82.9269 32.4656C82.7674 32.5544 82.6251 32.6704 82.5073 32.806L82.5098 30.3516H81.5454L81.5381 36.7676H82.5024L82.5049 34.1109C82.5049 33.9728 82.5122 33.8716 82.5515 33.7754C82.6668 33.4252 83.003 33.0724 83.4864 33.0749C84.2102 33.0749 84.3624 33.7064 84.3599 34.2367L84.3574 36.77H85.3218L85.3242 34.1479C85.3291 32.7394 84.4826 32.2387 83.7587 32.2362Z" fill="black"/>
<path d="M88.3713 32.2404C87.1493 32.2379 86.293 33.2197 86.293 34.6232C86.2905 35.9824 87.1444 36.8605 88.4621 36.863C89.1638 36.863 89.635 36.7175 89.9049 36.5941L89.9785 36.5596L89.8043 35.8146L89.6963 35.8615C89.4387 35.9701 89.1246 36.0712 88.5676 36.0712C88.1799 36.0712 87.2941 35.9429 87.2254 34.7984L90.1723 34.8008L90.1846 34.6874C90.1944 34.6084 90.2091 34.49 90.2091 34.342C90.2116 33.3726 89.7307 32.2428 88.3713 32.2404ZM88.3099 32.9927C88.5872 32.9927 88.8081 33.0766 88.97 33.2443C89.2105 33.491 89.262 33.8511 89.2718 34.046L87.2499 34.0435C87.3309 33.6094 87.6254 32.9927 88.3099 32.9927Z" fill="black"/>
<path d="M93.0691 32.2477C91.7785 32.2452 90.8779 33.2122 90.8779 34.596C90.8755 35.9379 91.7466 36.8777 92.9955 36.8802C94.0899 36.8802 95.1941 36.155 95.1965 34.5319C95.1965 33.1653 94.3426 32.2477 93.0691 32.2477ZM93.0299 36.0982C92.3453 36.0982 91.8496 35.4544 91.8496 34.5689C91.8496 33.7993 92.2226 33.0223 93.0495 33.0223C93.9696 33.0223 94.2126 34.0237 94.2126 34.5516C94.2126 35.4495 93.7145 36.1007 93.0299 36.0982Z" fill="black"/>
<path d="M98.3858 32.2514C97.765 32.2514 97.3159 32.5375 97.0558 32.8656L97.0239 32.3451H96.1455L96.1529 32.4512C96.1774 32.7743 96.1872 33.1147 96.1872 33.5908L96.1848 36.7827H97.1491L97.1515 34.1359C97.1515 34.0101 97.1687 33.8917 97.1982 33.8054C97.3086 33.4477 97.6398 33.0876 98.133 33.0901C98.8569 33.0901 99.009 33.7191 99.009 34.2445L99.0066 36.7877H99.9709L99.9733 34.1581C99.9733 32.3451 98.6508 32.2514 98.3858 32.2514Z" fill="black"/>
<path d="M104.179 32.8125C103.976 32.5584 103.593 32.2575 102.93 32.255C101.961 32.255 100.931 33.0764 100.931 34.6033C100.928 35.8392 101.743 36.7716 102.823 36.7716C103.335 36.7716 103.782 36.5817 104.084 36.2437V36.4361C104.084 37.3389 103.647 37.815 102.823 37.815C102.209 37.815 101.789 37.593 101.64 37.4968L101.532 37.4277L101.277 38.2072L101.34 38.2492C101.677 38.4761 102.236 38.6167 102.798 38.6167C103.269 38.6167 103.929 38.5254 104.398 38.0839C104.837 37.6917 105.033 37.0725 105.033 36.076L105.036 33.6142C105.036 33.0962 105.053 32.7582 105.073 32.4548L105.08 32.3488H104.209L104.179 32.8125ZM104.037 33.8091C104.064 33.8905 104.076 33.9867 104.076 34.1273V34.8895C104.076 35.0252 104.057 35.1584 104.02 35.2694C103.87 35.706 103.49 35.9896 103.051 35.9896C102.204 35.9896 101.905 35.2225 101.907 34.5639C101.907 33.666 102.373 33.0616 103.063 33.0616C103.61 33.0616 103.927 33.4465 104.037 33.8091Z" fill="black"/>
<path d="M111.01 32.2648C110.613 32.2648 110.306 32.3635 110.019 32.5806C109.867 32.694 109.727 32.8421 109.612 33.0147C109.376 32.546 108.925 32.2624 108.397 32.2624C107.87 32.2624 107.445 32.4671 107.133 32.8741L107.106 32.3586H106.235L106.243 32.4646C106.267 32.7878 106.277 33.1282 106.277 33.6043L106.275 36.7962H107.222L107.224 34.1395C107.224 34.0088 107.244 33.8929 107.281 33.7917C107.389 33.4538 107.7 33.0912 108.137 33.0912C108.625 33.0912 108.917 33.4908 108.917 34.1568L108.915 36.7962H109.862L109.864 34.0779C109.864 33.9595 109.884 33.8312 109.921 33.7251C110.031 33.4094 110.323 33.0912 110.733 33.0912C111.408 33.0912 111.548 33.7473 111.548 34.2974L111.545 36.7962H112.492L112.495 34.2012C112.492 32.7779 111.727 32.2673 111.01 32.2648Z" fill="black"/>
<path d="M116.922 35.691L116.924 34.1049C116.924 33.2687 116.63 32.2722 115.224 32.2697C114.691 32.2697 114.166 32.4128 113.784 32.6594L113.717 32.7014L113.958 33.4044L114.066 33.3353C114.353 33.1478 114.743 33.0368 115.109 33.0368C115.675 33.0368 115.962 33.3304 115.965 33.9076C114.974 33.915 114.26 34.1321 113.838 34.5539C113.568 34.8252 113.43 35.1706 113.428 35.58C113.428 36.2337 113.904 36.8973 114.814 36.8997C115.3 36.8997 115.749 36.7123 116.053 36.3866L116.1 36.8035H117.005L116.983 36.6851C116.944 36.436 116.922 36.1104 116.922 35.691ZM115.018 36.1326C114.628 36.1326 114.395 35.8958 114.395 35.4962C114.395 35.289 114.458 35.1262 114.591 34.9979C114.831 34.7611 115.29 34.6427 115.96 34.6427C115.967 34.6427 115.975 34.6427 115.982 34.6427V35.2791C115.982 35.3408 115.967 35.4172 115.943 35.4912C115.845 35.7872 115.54 36.1326 115.018 36.1326Z" fill="black"/>
<path d="M120.243 33.0947C120.667 33.0947 120.932 33.1983 121.082 33.2847L121.192 33.3463L121.426 32.5496L121.352 32.5126C121.143 32.4065 120.726 32.2832 120.245 32.2807C118.854 32.2782 117.88 33.2452 117.88 34.629C117.877 35.9832 118.761 36.8935 120.076 36.8935C120.645 36.8935 121.109 36.7578 121.332 36.6394L121.401 36.6024L121.227 35.8303L121.116 35.8796C120.898 35.9783 120.628 36.0819 120.216 36.0794C119.401 36.0794 118.852 35.4825 118.854 34.592C118.854 33.6843 119.399 33.0947 120.243 33.0947Z" fill="black"/>
<path d="M127.995 33.1864L125.352 33.1839L125.354 30.7147H124.4L124.393 36.8149L125.35 36.8174L125.352 34.0497L127.995 34.0522L127.99 36.8198H128.957L128.961 30.7197L127.997 30.7172L127.995 33.1864Z" fill="black"/>
<path d="M132.157 32.2916C130.866 32.2891 129.966 33.2561 129.966 34.6399C129.963 35.9818 130.834 36.9216 132.083 36.9241C133.178 36.9241 134.282 36.1989 134.284 34.5757C134.287 33.2092 133.43 32.2916 132.157 32.2916ZM132.118 36.1446C131.433 36.1446 130.937 35.5008 130.937 34.6152C130.937 33.8456 131.31 33.0686 132.137 33.0686C133.058 33.0686 133.3 34.0701 133.3 34.6004C133.3 35.4934 132.805 36.1446 132.118 36.1446Z" fill="black"/>
<path d="M136.77 34.1775C136.198 33.9579 136.034 33.8173 136.034 33.5509C136.034 33.2648 136.277 33.0724 136.64 33.0724C137.045 33.0724 137.339 33.2352 137.447 33.3043L137.553 33.3733L137.813 32.6161L137.744 32.5741C137.455 32.4014 137.047 32.2978 136.657 32.2954C135.742 32.2954 135.101 32.8455 135.101 33.6373C135.101 34.0344 135.305 34.582 136.279 34.9323C136.883 35.1568 136.998 35.3467 136.998 35.618C136.998 35.9511 136.728 36.1484 136.277 36.1484C135.921 36.1484 135.541 36.0029 135.32 35.8573L135.212 35.7858L134.954 36.5727L135.023 36.6146C135.349 36.807 135.798 36.918 136.257 36.918C137.275 36.918 137.933 36.3827 137.933 35.5514C137.938 34.9126 137.58 34.4883 136.77 34.1775Z" fill="black"/>
<path d="M141.247 32.3027C140.653 32.3027 140.162 32.5247 139.816 32.9515L139.792 32.3964H138.903L138.908 32.5C138.925 32.8972 138.943 33.3313 138.943 33.8789L138.938 38.5657H139.895L139.897 36.4369C140.187 36.7502 140.623 36.9303 141.114 36.9303C142.118 36.9303 143.131 36.1976 143.131 34.5548C143.131 33.2524 142.339 32.3027 141.247 32.3027ZM141.011 33.1143C141.809 33.1143 142.167 33.8567 142.164 34.5918C142.164 35.539 141.71 36.1286 140.982 36.1286C140.481 36.1286 140.057 35.7956 139.931 35.3072C139.912 35.2036 139.897 35.1123 139.9 35.0087V34.281C139.9 34.1848 139.927 34.0763 139.949 33.9899C140.081 33.4744 140.518 33.1143 141.011 33.1143Z" fill="black"/>
<path d="M144.605 30.7257C144.277 30.7257 144.026 30.9749 144.026 31.3054C144.026 31.631 144.267 31.8777 144.586 31.8777C144.76 31.8777 144.917 31.816 145.023 31.705C145.123 31.6014 145.177 31.4583 145.172 31.3054C145.175 30.9699 144.937 30.7257 144.605 30.7257Z" fill="black"/>
<path d="M144.122 32.4017L144.117 36.8393L145.082 36.8403L145.086 32.4027L144.122 32.4017Z" fill="black"/>
<path d="M147.503 31.1585L146.556 31.4125V32.4066H145.903V33.1935H146.556L146.554 35.4062C146.554 35.976 146.657 36.3485 146.873 36.5754C147.076 36.8097 147.388 36.9331 147.773 36.9331C148.06 36.9331 148.315 36.8936 148.49 36.8221L148.556 36.7949L148.509 36.0228L148.391 36.0549C148.31 36.0771 148.173 36.1042 147.974 36.1042C147.729 36.1042 147.498 36.0154 147.501 35.3815L147.503 33.196H148.6V32.4091H147.503V31.1585Z" fill="black"/>
<path d="M152.639 35.7314L152.641 34.1453C152.641 33.3091 152.347 32.3125 150.941 32.31C150.408 32.31 149.883 32.4531 149.5 32.6998L149.434 32.7417L149.675 33.4447L149.782 33.3757C150.07 33.1882 150.46 33.0772 150.825 33.0772C151.392 33.0772 151.679 33.3707 151.682 33.9479C150.69 33.9553 149.976 34.1724 149.554 34.5942C149.284 34.8656 149.147 35.2109 149.145 35.6204C149.145 36.2741 149.621 36.9376 150.531 36.9401C151.017 36.9401 151.466 36.7526 151.77 36.427L151.817 36.8439H152.722L152.7 36.7255C152.661 36.4788 152.639 36.1532 152.639 35.7314ZM150.737 36.1729C150.347 36.1729 150.114 35.9361 150.114 35.5365C150.114 35.3293 150.178 35.1665 150.31 35.0382C150.551 34.8014 151.009 34.683 151.679 34.683C151.687 34.683 151.694 34.683 151.701 34.683V35.3194C151.701 35.3811 151.687 35.4576 151.662 35.5316C151.561 35.8276 151.257 36.1729 150.737 36.1729Z" fill="black"/>
<path d="M153.902 30.4307L153.896 36.8466L154.86 36.8477L154.867 30.4318L153.902 30.4307Z" fill="black"/>
<path d="M52.9188 34.2053L52.918 34.8516L72.1578 34.8691L72.1586 34.2228L52.9188 34.2053Z" fill="black"/>
<path d="M17.2911 34.9965C17.2911 34.9965 11.8659 32.5273 6.58295 23.4893C6.58295 23.4893 5.61863 21.3482 5.37571 18.8568C5.17205 16.7576 5.48367 14.4069 7.32398 12.8726C7.32398 12.8726 11.3015 9.78177 17.6714 15.877V15.8746C17.6714 15.8746 14.0227 11.1557 9.46119 9.19469C8.24168 8.66928 6.95837 8.33874 5.65789 8.35107C1.22397 8.39794 0.127151 12.4878 0.0878906 13.9135C0.313635 16.0571 1.02522 18.6767 2.55881 21.8391C2.55881 21.8391 6.03577 30.1248 12.0033 34.2417C12.0033 34.2417 23.4549 42.4657 29.1549 34.4662C29.1549 34.4637 24.7284 39.1159 17.2911 34.9965Z" fill="url(#paint0_linear_116_5161)"/>
<path d="M27.3626 21.5204C27.3626 21.5204 14.402 -1.90105 3.02886 5.4917C3.02886 5.4917 -0.610045 7.67968 0.0892716 13.9106C0.128531 12.4848 1.2229 8.39502 5.66172 8.35309C6.95975 8.34076 8.24551 8.66883 9.46502 9.19671C14.0265 11.1577 17.6752 15.8766 17.6752 15.8766V15.879C17.9304 16.1232 18.1881 16.3773 18.4506 16.6511C18.4506 16.6511 20.5903 18.9057 21.3436 21.3601C21.3436 21.3601 24.7298 28.3927 21.8098 30.4968C18.934 32.5688 15.8668 30.4179 15.7736 30.3488C16.9489 31.3972 18.2715 32.3518 19.7119 33.0153C19.7119 33.0153 25.3996 35.2107 27.6865 31.6562C27.6865 31.6562 27.9294 31.3848 28.1871 30.8027C28.7662 29.483 29.4017 26.5599 27.3626 21.5204Z" fill="url(#paint1_linear_116_5161)"/>
<path d="M21.3399 21.3579C21.7154 22.5864 21.7473 23.8666 20.9842 24.9396C20.9842 24.9396 18.8396 26.7206 16.0251 23.4275C16.0251 23.4275 14.8253 21.0989 14.4179 20.2085C14.1333 19.572 13.5027 18.2104 12.32 17.7023C11.844 17.4975 11.2796 17.4235 10.6073 17.6011C10.6073 17.6011 7.58671 18.6273 10.195 23.4201C10.195 23.4201 12.347 27.2929 15.7699 30.3467C15.8632 30.4133 18.9304 32.5642 21.8062 30.4947C22.6257 29.9051 22.9496 28.9209 22.9889 27.8183C23.0895 24.9914 21.3399 21.3579 21.3399 21.3579Z" fill="url(#paint2_linear_116_5161)"/>
<path d="M35.7451 7.40852C32.2804 3.22744 28.3176 4.92454 28.2587 4.94921C26.6785 7.32219 26.7472 9.62117 27.1202 11.1925C27.4171 12.4456 27.9054 13.2398 27.9054 13.2398C28.3716 13.9256 30.5137 17.8995 30.5137 17.8995C34.3244 25.2355 32.3786 31.1161 32.3786 31.1161C30.9726 34.8162 28.7397 36.7575 26.5534 37.7516C26.7791 37.6875 26.9926 37.6085 27.2061 37.5321L27.2085 37.537C27.2085 37.537 24.8726 40.2208 18.6572 39.4684C23.9254 40.8375 28.59 39.2366 30.6487 38.314C33.4926 35.3219 35.4875 32.3396 36.8321 29.4659C41.6365 19.2044 38.1817 10.3488 35.7451 7.40852Z" fill="url(#paint3_linear_116_5161)"/>
<path d="M27.2045 37.5296C26.9886 37.6086 26.7751 37.685 26.5518 37.7492C23.4012 39.1823 20.3488 38.6446 20.0322 38.5607C16.6313 38.3806 11.4981 35.2084 9.83203 34.1107C12.06 36.4418 16.3762 38.6692 16.5749 38.7729C17.0068 38.9455 17.4435 39.1059 17.8877 39.2489C18.1453 39.3303 18.4005 39.3945 18.6557 39.4611C24.871 40.2134 27.207 37.5296 27.207 37.5296H27.2045Z" fill="url(#paint4_linear_116_5161)"/>
<path d="M40.209 1.14532C38.2435 0.0698313 36.4769 -0.15464 34.9433 0.0895652V0.0846319C34.9433 0.0846319 34.6783 0.0870985 34.2194 0.205501C33.7655 0.323903 33.1177 0.550841 32.3497 1.00225C30.5609 1.9988 29.2997 3.50103 28.669 4.37672C28.5218 4.56912 28.3869 4.75906 28.2617 4.949C28.3206 4.92433 32.2834 3.22723 35.7481 7.40831C38.8692 11.1701 43.654 24.6285 30.6492 38.3089C31.3682 37.9857 31.7706 37.7464 31.7706 37.7464C33.5814 36.6438 35.1273 35.3932 36.4229 34.1401C40.1182 30.5757 41.7917 27.0286 41.7917 27.0286C44.4761 22.2678 45.0944 16.7399 45.0944 16.7399C46.4145 5.12413 40.209 1.14532 40.209 1.14532Z" fill="url(#paint5_linear_116_5161)"/>
<path d="M39.053 15.6721C38.4788 11.7624 36.9869 8.8171 35.7822 7.36667C32.5727 3.49393 28.9092 4.64095 28.3179 4.86295C28.2663 4.93449 28.2197 5.01095 28.2197 5.01095L28.2786 4.98382C28.443 4.91475 32.3248 3.34839 35.7085 7.4308C36.9035 8.87383 38.3856 11.7994 38.9573 15.6894C39.4211 18.8542 39.4235 23.8073 36.7882 29.4339C35.3601 32.4852 33.2867 35.4502 30.6293 38.2499C30.5949 38.2845 30.4968 38.3807 30.4428 38.4053C30.4428 38.4053 30.5434 38.3659 30.6342 38.3239C30.6342 38.3239 30.698 38.2943 30.7446 38.2721C33.3873 35.4774 35.4534 32.5198 36.879 29.4758C39.5217 23.8246 39.5192 18.8492 39.053 15.6721Z" fill="white"/>
<path d="M15.4951 30.1022C15.4951 30.1022 15.9392 30.5093 16.0104 30.5611L15.8435 30.3662L15.4951 30.1022Z" fill="white"/>
<path d="M21.3865 21.3386L21.1829 20.897C21.1829 20.897 21.2638 21.1264 21.3399 21.3608C21.3743 21.4718 21.4282 21.6691 21.4282 21.6691C21.8307 22.5818 23.0256 25.4901 22.9447 27.8162C22.9005 29.0446 22.5079 29.9326 21.7816 30.4556C18.9426 32.498 15.9294 30.3988 15.8018 30.3076L15.5 30.1004L15.7748 30.347L16.0177 30.5592C16.5232 30.8601 17.6814 31.4422 19.0677 31.4422C19.9388 31.4422 20.8982 31.2104 21.8405 30.532C22.5938 29.9893 22.9986 29.0767 23.0428 27.8162C23.141 25.014 21.4037 21.3731 21.3865 21.3386Z" fill="white"/>
<path d="M17.6692 15.8511C17.6324 15.8018 13.9616 11.0978 9.43935 9.15648C8.13642 8.59407 6.87519 8.31039 5.69003 8.31039C5.6655 8.31039 5.64096 8.31039 5.61888 8.31039C1.58247 8.34986 0.281983 11.7268 0.0390625 13.4362C0.0390625 13.4387 0.0611463 13.7594 0.08323 13.9172C0.0856837 13.937 0.0881374 13.9567 0.0930449 13.9715L0.0954985 13.9172C0.134758 12.5013 1.23404 8.451 5.61888 8.4066C5.64341 8.4066 5.6655 8.4066 5.69003 8.4066C6.86292 8.4066 8.10942 8.6878 9.40255 9.24528C13.0954 10.8338 16.219 14.2749 17.2398 15.4811C17.3748 15.6119 17.5343 15.7623 17.6496 15.8659C17.7355 15.9473 17.7968 16.0016 17.7968 16.0016L17.6692 15.8511Z" fill="white"/>
<defs>
<linearGradient id="paint0_linear_116_5161" x1="16.5149" y1="29.486" x2="-1.38825" y2="-4.0161" gradientUnits="userSpaceOnUse">
<stop stop-color="#DB3932"/>
<stop offset="1" stop-color="#87181D"/>
</linearGradient>
<linearGradient id="paint1_linear_116_5161" x1="8.00566" y1="9.04582" x2="25.2422" y2="34.5298" gradientUnits="userSpaceOnUse">
<stop stop-color="#DD3C27"/>
<stop offset="0.5" stop-color="#EB9500"/>
<stop offset="1" stop-color="#DE5439"/>
</linearGradient>
<linearGradient id="paint2_linear_116_5161" x1="10.2336" y1="17.6827" x2="27.0217" y2="34.0309" gradientUnits="userSpaceOnUse">
<stop stop-color="#DB3932"/>
<stop offset="1" stop-color="#87181D"/>
</linearGradient>
<linearGradient id="paint3_linear_116_5161" x1="29.1081" y1="35.043" x2="28.0421" y2="-4.54617" gradientUnits="userSpaceOnUse">
<stop stop-color="#DB3932"/>
<stop offset="1" stop-color="#87181D"/>
</linearGradient>
<linearGradient id="paint4_linear_116_5161" x1="20.3368" y1="37.3078" x2="8.51399" y2="28.3954" gradientUnits="userSpaceOnUse">
<stop stop-color="#C63522"/>
<stop offset="0.5" stop-color="#E98B00"/>
<stop offset="1" stop-color="#DD5439"/>
</linearGradient>
<linearGradient id="paint5_linear_116_5161" x1="37.0128" y1="8.25282" x2="31.1965" y2="52.4724" gradientUnits="userSpaceOnUse">
<stop stop-color="#DD3C27"/>
<stop offset="0.0278" stop-color="#DE4A25"/>
<stop offset="0.1107" stop-color="#E2671C"/>
<stop offset="0.1971" stop-color="#E67C0D"/>
<stop offset="0.2876" stop-color="#E88A00"/>
<stop offset="0.3847" stop-color="#EA9200"/>
<stop offset="0.5" stop-color="#EB9500"/>
<stop offset="0.7373" stop-color="#EA9400"/>
<stop offset="0.8228" stop-color="#E98E00"/>
<stop offset="0.8837" stop-color="#E78515"/>
<stop offset="0.933" stop-color="#E47726"/>
<stop offset="0.9747" stop-color="#E16432"/>
<stop offset="1" stop-color="#DE5439"/>
</linearGradient>
</defs>
</svg>
